<?xml version="1.0"?>
<svg xmlns="http://www.w3.org/2000/svg" height="512px" viewBox="-34 0 512 512.001" width="512px"><path d="m423.65625 133.777344h-162.988281l23.464843-23.46875v-48.546875c0-34.058594-27.703124-61.761719-61.757812-61.761719s-61.761719 27.703125-61.761719 61.761719v48.550781l23.46875 23.464844h-162.988281l-21.09375 21.09375v40.164062h155.804688v316.964844h45.851562l15.402344-15.402344v-159.203125h10.628906v159.203125l15.402344 15.402344h45.855468v-316.964844h155.804688v-40.164062zm-159.941406 15-19.640625 45.039062-2.246094-19.265625h.929687v-25.773437zm-51.132813 72.367187 5.429688-46.59375h8.714843l5.429688 46.59375-7.945312 18.226563h-3.679688zm15.175781-61.59375h-10.773437v-10.773437h10.773437zm-52.144531-97.789062c0-25.785157 20.976563-46.761719 46.761719-46.761719s46.757812 20.976562 46.757812 46.761719v42.335937l-29.679687 29.679688h-34.160156l-29.679688-29.679688zm26.371094 87.015625v25.773437h.925781l-2.246094 19.265625-19.636718-45.039062zm227.765625 31.257812h-155.804688v316.964844h-24.640624l-6.617188-6.617188v-167.988281h-40.625v167.988281l-6.617188 6.617188h-24.640624v-316.964844h-155.804688v-18.949218l12.304688-12.308594h137.355468l46.046875 105.59375h23.324219l46.046875-105.59375h137.363281l12.304688 12.308594v18.949218zm0 0" fill="#857c8e"/><path d="m214.875 82.921875h15v-14.972656l12.964844 7.488281 7.5-12.992188-12.964844-7.484374 12.964844-7.484376-7.5-12.992187-12.964844 7.488281v-14.972656h-15v14.972656l-12.964844-7.488281-7.5 12.992187 12.964844 7.484376-12.964844 7.484374 7.5 12.992188 12.964844-7.488281zm0 0" fill="#857c8e"/><path d="m349.257812 15.421875h17.402344l13.402344 13.398437-87.152344 87.15625 10.605469 10.605469 97.757813-97.761719-28.398438-28.398437h-29.832031l-51.828125 51.832031 10.605468 10.605469zm0 0" fill="#857c8e"/><path d="m151.839844 115.976562-87.152344-87.15625 13.398438-13.398437h17.40625l47.4375 47.4375 10.605468-10.605469-51.828125-51.832031h-29.832031l-28.402344 28.398437 97.761719 97.761719zm0 0" fill="#857c8e"/><path d="m148.605469 216.074219-10.605469-10.609375-79.609375 79.613281v29.828125l28.398437 28.402344 61.816407-61.816406-10.605469-10.609376-51.210938 51.210938-13.398437-13.398438v-17.40625zm0 0" fill="#857c8e"/><path d="m296.140625 216.074219 75.21875 75.214843v17.40625l-13.402344 13.398438-51.207031-51.210938-10.609375 10.609376 61.816406 61.816406 28.402344-28.402344v-29.828125l-79.609375-79.613281zm0 0" fill="#857c8e"/><path d="m350.886719 300.820312-23.824219-23.828124 10.605469-10.605469 23.828125 23.824219zm-30.894531-30.898437-10.609376-10.605469 10.609376-10.609375 10.605468 10.605469zm-17.679688-17.679687-10.605469-10.605469 10.605469-10.605469 10.605469 10.605469zm0 0" fill="#857c8e"/><path d="m407.375 171.777344h-50v-15h50zm-60 0h-15v-15h15zm-25 0h-15v-15h15zm0 0" fill="#857c8e"/><path d="m303.9375 95.046875-10.605469-10.605469 10.605469-10.605468 10.605469 10.605468zm17.679688-17.679687-10.609376-10.605469 10.609376-10.605469 10.605468 10.605469zm17.675781-17.675782-10.605469-10.605468 24.464844-24.46875 10.605468 10.609374zm0 0" fill="#857c8e"/></svg>
